<?xml version="1.0" encoding="UTF-8"?>
<svg version="1.1" xmlns="http://www.w3.org/2000/svg" width="264" height="238">
<path d="M0 0 C2.23611867 -0.00217357 4.47173295 -0.02031752 6.70776367 -0.03930664 C25.0080419 -0.11228118 25.0080419 -0.11228118 31.94799805 3.81030273 C36.96559816 9.41820874 38.90384552 16.39549626 40.69799805 23.56030273 C41.10063999 25.15303192 41.50922277 26.7442745 41.92456055 28.33374023 C42.09810059 29.0264502 42.27164063 29.71916016 42.45043945 30.43286133 C43.0116311 32.41033715 43.0116311 32.41033715 45.07299805 34.18530273 C48.07530123 34.47970246 48.07530123 34.47970246 51.6688385 34.41235352 C52.35431761 34.41265123 53.03979671 34.41294895 53.74604791 34.41325569 C56.05445449 34.41186125 58.36254687 34.39615225 60.67089844 34.38061523 C62.32159242 34.37677867 63.97228872 34.37385023 65.62298584 34.37176514 C69.18452797 34.36543061 72.7459759 34.35287415 76.30748177 34.33563232 C81.94313482 34.30863205 87.57875624 34.29680751 93.21446228 34.28735352 C106.20466612 34.26323212 119.19478868 34.21922634 132.18493652 34.17489624 C144.07027327 34.13451126 155.95558181 34.09835785 167.84097284 34.07846642 C173.4383301 34.06852123 179.03554157 34.04882868 184.63284028 34.02160645 C188.12514807 34.00663484 191.61743612 34.00004519 195.10977173 33.99567413 C196.72340019 33.99194514 198.33702514 33.98477343 199.95062065 33.97380829 C220.17319164 33.84077841 220.17319164 33.84077841 226.01049805 38.56030273 C229.80425609 43.38872206 230.29865934 45.97097876 230.07299805 52.18530273 C229.4569397 55.25248718 229.4569397 55.25248718 228.5793457 58.37548828 C228.08670227 60.15418304 228.08670227 60.15418304 227.58410645 61.96881104 C227.21858713 63.25326081 226.85290038 64.53766296 226.48706055 65.82202148 C226.10967415 67.17220111 225.73310466 68.5226093 225.3572998 69.87322998 C224.35460031 73.46843941 223.34103501 77.06049737 222.32511139 80.65198898 C221.2791328 84.35614177 220.24256121 88.06292358 219.20532227 91.76953125 C217.97138642 96.17675086 216.73644113 100.58367656 215.49661255 104.98924255 C213.23352126 113.03136567 210.99130126 121.07865141 208.79174805 129.13842773 C208.33652679 130.80160042 207.88128695 132.46476803 207.42602539 134.12792969 C206.82180412 136.33637868 206.21898577 138.54514281 205.62164307 140.75546265 C199.62511916 162.91987548 199.62511916 162.91987548 192.07299805 168.12670898 C188.39817144 170.07178323 185.01758045 170.31225204 180.90032959 170.32574463 C179.85462296 170.33145477 178.80891632 170.33716492 177.73152161 170.3430481 C176.58962875 170.34416595 175.4477359 170.34528381 174.27124023 170.34643555 C173.06431015 170.35140045 171.85738007 170.35636536 170.61387634 170.36148071 C167.30581414 170.37357812 163.99781506 170.38104471 160.68973827 170.38549137 C158.62057156 170.38842674 156.55141034 170.39253246 154.4822464 170.39699554 C148.00132898 170.41066452 141.52042416 170.42033372 135.03949332 170.42419744 C127.57134678 170.42867477 120.10338358 170.44620996 112.63529277 170.47519803 C106.85423943 170.49685462 101.07323751 170.50690386 95.29214406 170.50823855 C91.84338019 170.50928388 88.39478879 170.51513308 84.94606781 170.53305817 C81.09476381 170.55268671 77.24368669 170.54823404 73.39233398 170.54174805 C72.25853806 170.55096283 71.12474213 170.56017761 69.95658875 170.56967163 C62.86247493 170.53229346 57.11486069 169.96078937 51.10820007 165.83610535 C46.21279964 160.23648382 44.99641227 153.79408086 43.4050293 146.67358398 C43.07649335 145.27631693 42.74583993 143.8795464 42.4132843 142.48323059 C41.68245804 139.4030782 40.96291689 136.32056081 40.25030518 133.23614502 C39.01008342 127.88799522 37.719576 122.55253024 36.42211914 117.21801758 C35.95416947 115.292878 35.48622314 113.36773761 35.01828003 111.44259644 C34.78245083 110.47254543 34.54662163 109.50249443 34.30364609 108.50304794 C33.09530144 103.52418431 31.89558479 98.54324688 30.69604492 93.56225586 C30.45544279 92.56344328 30.21484066 91.5646307 29.96694756 90.53555107 C28.98136183 86.44360996 27.99611772 82.35158669 27.01104736 78.25952148 C25.54022345 72.14981662 24.06809319 66.0404296 22.59412575 59.93148232 C21.91543731 57.11634843 21.23864835 54.3007625 20.56193542 51.4851532 C19.5800422 47.4056476 18.58594126 43.32933146 17.58062363 39.25553703 C17.11659802 37.36311519 16.66525681 35.46759468 16.21524048 33.5717926 C15.96696503 32.57445602 15.71868958 31.57711945 15.46289062 30.54956055 C15.16382561 29.31619965 15.16382561 29.31619965 14.85871887 28.05792236 C14.14423891 25.81125785 14.14423891 25.81125785 11.01049805 24.50170898 C6.33694912 24.12615595 1.75849554 24.00741362 -2.92700195 24.12280273 C-18.13874439 24.42930799 -18.13874439 24.42930799 -22.80200195 21.18530273 C-25.58962504 17.24983484 -26.37509132 13.98746806 -25.92700195 9.18530273 C-23.96864961 5.3385392 -22.51250933 3.57564099 -18.92700195 1.18530273 C-12.80096274 -0.50447707 -6.30575468 -0.00068563 0 0 Z M162.07299805 70.18530273 C161.3975293 71.00772461 160.72206055 71.83014648 160.02612305 72.67749023 C158.51868528 74.52169602 157.01903508 76.37228731 155.52612305 78.22827148 C152.96803724 81.31182396 150.30234532 84.2545907 147.57299805 87.18530273 C138.14772003 96.87106603 138.14772003 96.87106603 131.07299805 108.18530273 C130.41299805 108.18530273 129.75299805 108.18530273 129.07299805 108.18530273 C127.68396537 109.80584085 126.35966977 111.48235487 125.07299805 113.18530273 C123.78632633 114.8882506 122.46203072 116.56476462 121.07299805 118.18530273 C116.71775096 118.18530273 112.71591213 112.79437924 109.69799805 109.93530273 C106.45430151 106.53714446 103.35370947 103.02188526 100.2565918 99.48999023 C96.83437091 95.87798608 95.17544529 94.30779687 90.13549805 93.74780273 C87.0348821 93.87506682 85.94547947 94.25855809 83.13549805 95.87280273 C80.80760784 98.48286145 80.1578153 99.70779528 80.07299805 103.18530273 C81.19570522 107.67613142 83.86480015 110.06798863 87.07299805 113.18530273 C89.66066223 115.74344182 92.24136484 118.30857939 94.82299805 120.87280273 C95.50749023 121.54891602 96.19198242 122.2250293 96.8972168 122.92163086 C97.54819336 123.56938477 98.19916992 124.21713867 98.86987305 124.88452148 C99.75690918 125.76370239 99.75690918 125.76370239 100.66186523 126.66064453 C102.07299805 128.18530273 102.07299805 128.18530273 103.07299805 130.18530273 C103.73299805 130.18530273 104.39299805 130.18530273 105.07299805 130.18530273 C105.07299805 130.84530273 105.07299805 131.50530273 105.07299805 132.18530273 C106.79185121 133.92418364 106.79185121 133.92418364 108.94799805 135.68530273 C111.06335309 137.47463531 113.11318929 139.22549398 115.07299805 141.18530273 C119.82402355 142.36509376 119.82402355 142.36509376 124.40893555 141.10717773 C127.84400606 138.62909167 130.54922551 135.753232 133.38549805 132.62280273 C133.95945313 131.99728516 134.5334082 131.37176758 135.12475586 130.72729492 C138.99802842 126.46996829 142.65115533 122.0838134 146.1862793 117.54077148 C148.90534725 114.1461587 151.85006713 110.97188965 154.7800293 107.75952148 C157.9471313 104.20395041 160.93062855 100.51108568 163.9206543 96.80639648 C166.47333788 93.69777455 169.14022717 90.70834762 171.8581543 87.74389648 C173.27791851 86.25175209 173.27791851 86.25175209 173.07299805 84.18530273 C173.73299805 84.18530273 174.39299805 84.18530273 175.07299805 84.18530273 C178.88368476 80.38323749 181.78182694 76.77350876 182.76049805 71.43530273 C181.91932257 67.45883685 181.26224287 65.75225588 178.07299805 63.18530273 C170.41665024 61.10123895 166.65374673 64.46932502 162.07299805 70.18530273 Z " fill="#4178FE" transform="translate(25.927001953125,3.814697265625)"/>
<path d="M0 0 C6.77970876 3.76763936 10.59616963 8.63616514 13.03125 15.94140625 C13.7034067 23.37920579 13.65492329 29.82666672 9.03125 35.94140625 C4.65740886 40.9158007 -0.41679395 43.85981351 -6.96875 44.94140625 C-14.87077672 45.20851701 -20.70204892 43.8248103 -26.62109375 38.4375 C-31.27893232 33.52911754 -33.68528123 28.22718405 -34.1328125 21.4609375 C-33.86148066 14.72982079 -31.40162648 9.94690375 -26.96875 4.94140625 C-19.42290604 -1.74296715 -9.58426311 -3.41754645 0 0 Z " fill="#4279FE" transform="translate(113.96875,188.05859375)"/>
<path d="M0 0 C5.96465689 3.58634433 9.96911783 8.80279205 12.08984375 15.40625 C13.77727969 22.65804082 12.28465752 28.13753759 8.5625 34.4375 C6.0625 37.3125 6.0625 37.3125 3.5625 39.4375 C2.94375 39.994375 2.325 40.55125 1.6875 41.125 C-3.92032293 44.58865534 -10.28877589 45.36751171 -16.66796875 43.9375 C-24.08201905 41.75178333 -28.53965368 38.47367584 -32.3125 31.75 C-35.09071422 25.69007643 -35.50776609 20.49254543 -33.80859375 14.0546875 C-31.25688793 7.30353758 -26.53494642 2.46587166 -20.078125 -0.73046875 C-13.79721457 -2.70951301 -6.05850466 -2.7251575 0 0 Z " fill="#4279FE" transform="translate(207.4375,188.5625)"/>
<path d="M0 0 C3 1 3 1 3 1 Z " fill="#5285FC" transform="translate(171,175)"/>
<path d="M0 0 C2 1 2 1 2 1 Z " fill="#5886FE" transform="translate(186,186)"/>
<path d="M0 0 C2 1 2 1 2 1 Z " fill="#5988FE" transform="translate(108,185)"/>
<path d="M0 0 C2 1 2 1 2 1 Z " fill="#5A87FA" transform="translate(100,185)"/>
<path d="M0 0 C2 1 2 1 2 1 Z " fill="#5184FB" transform="translate(183,175)"/>
<path d="M0 0 C2 1 2 1 2 1 Z " fill="#5386FC" transform="translate(167,175)"/>
<path d="M0 0 C2 1 2 1 2 1 Z " fill="#5286FD" transform="translate(111,175)"/>
<path d="" fill="#648CEC" transform="translate(0,0)"/>
<path d="" fill="#608BF5" transform="translate(0,0)"/>
<path d="" fill="#5F8BF2" transform="translate(0,0)"/>
<path d="" fill="#5A8AFB" transform="translate(0,0)"/>
<path d="" fill="#5B87F9" transform="translate(0,0)"/>
<path d="" fill="#5B87FB" transform="translate(0,0)"/>
<path d="" fill="#618BF9" transform="translate(0,0)"/>
<path d="" fill="#5C8AFF" transform="translate(0,0)"/>
<path d="" fill="#5788FD" transform="translate(0,0)"/>
<path d="" fill="#5C8AFC" transform="translate(0,0)"/>
<path d="" fill="#5B89FB" transform="translate(0,0)"/>
<path d="" fill="#5989FD" transform="translate(0,0)"/>
<path d="" fill="#5384F8" transform="translate(0,0)"/>
<path d="" fill="#5385FC" transform="translate(0,0)"/>
<path d="" fill="#5185FD" transform="translate(0,0)"/>
<path d="" fill="#5383FA" transform="translate(0,0)"/>
<path d="" fill="#5286FB" transform="translate(0,0)"/>
<path d="" fill="#5585FA" transform="translate(0,0)"/>
<path d="" fill="#5288FC" transform="translate(0,0)"/>
<path d="" fill="#5385FE" transform="translate(0,0)"/>
<path d="" fill="#5385FE" transform="translate(0,0)"/>
<path d="" fill="#5386FC" transform="translate(0,0)"/>
<path d="" fill="#5587FB" transform="translate(0,0)"/>
<path d="" fill="#5587FC" transform="translate(0,0)"/>
<path d="" fill="#5688FC" transform="translate(0,0)"/>
<path d="" fill="#5888FA" transform="translate(0,0)"/>
<path d="" fill="#5788FB" transform="translate(0,0)"/>
<path d="" fill="#5F89F7" transform="translate(0,0)"/>
<path d="" fill="#5984F7" transform="translate(0,0)"/>
<path d="" fill="#5883F0" transform="translate(0,0)"/>
<path d="" fill="#5786FD" transform="translate(0,0)"/>
<path d="" fill="#5886FA" transform="translate(0,0)"/>
<path d="" fill="#5281F5" transform="translate(0,0)"/>
<path d="" fill="#5385FC" transform="translate(0,0)"/>
<path d="" fill="#5985F9" transform="translate(0,0)"/>
<path d="" fill="#5383FF" transform="translate(0,0)"/>
<path d="" fill="#5887FB" transform="translate(0,0)"/>
<path d="" fill="#5486FD" transform="translate(0,0)"/>
<path d="" fill="#5387FD" transform="translate(0,0)"/>
<path d="" fill="#5286FF" transform="translate(0,0)"/>
<path d="" fill="#5684F5" transform="translate(0,0)"/>
<path d="" fill="#5989FC" transform="translate(0,0)"/>
<path d="" fill="#5E84E9" transform="translate(0,0)"/>
<path d="" fill="#5C8AFB" transform="translate(0,0)"/>
<path d="" fill="#5788FD" transform="translate(0,0)"/>
<path d="" fill="#648CF4" transform="translate(0,0)"/>
<path d="" fill="#648BF3" transform="translate(0,0)"/>
</svg>
